# xmcd
#
# Track frame offsets: 
#        150
#        16907
#        34765
#        49256
#        64234
#        80206
#        97064
#        114666
#        131637
#        146212
#        161634
#        175237
#        191609
#        206703
#        220270
#        233762
#        248057
#        263623
#        278893
#        292778
#
# Disc length: 4109 seconds
#
# Revision: 3
# Processed by: cddbd v1.5.2PL0 Copyright (c) Steve Scherf et al.
# Submitted via: ExactAudioCopy v1.0b3
#
DISCID=30100b14
DTITLE=Various Artist - Die Deutsche Schlagerparade 01-2004 CD2
DYEAR=2004
DGENRE=Easy Listening
TTITLE0=Reim - Träumer
TTITLE1=Mary Roos - In der Mitte meines Lebens
TTITLE2=Frans Bauer - Luftballons
TTITLE3=Die Paldauer - Du bist alles
TTITLE4=Ingrid Peters - Das Ende eines Sommers
TTITLE5=G.G.Anderson - Stern an der Playa del Sol
TTITLE6=Simone - Viel zu oft
TTITLE7=Looping - Unter meiner Haut
TTITLE8=Matthias Carras - Ich will heut nicht alleine schlafen
TTITLE9=Xandra Hag - Versuch zu lächeln, Mona Lisa
TTITLE10=Leonard - Was soll ich von meinen Falten halten
TTITLE11=Hoi! - I schau so gern fern
TTITLE12=Bernd Rusinsky - Eins sein mit Dir
TTITLE13=Michael Heck - Wings Of Love (Auf den Flügeln der Liebe)
TTITLE14=Janis Nikos - Amor, Amor
TTITLE15=Ralph Lohaus - Leben
TTITLE16=Peter Lorenz - Frei sein
TTITLE17=Jan Hayston - Ich komm nicht aus dem Bett
TTITLE18=Frank Lars - Jetzt macht ich es mir selber
TTITLE19=Helmut aus Mallorca - Zurück zu Dir 2003
EXTD=
EXTT0=
EXTT1=
EXTT2=
EXTT3=
EXTT4=
EXTT5=
EXTT6=
EXTT7=
EXTT8=
EXTT9=
EXTT10=
EXTT11=
EXTT12=
EXTT13=
EXTT14=
EXTT15=
EXTT16=
EXTT17=
EXTT18=
EXTT19=
PLAYORDER=
